<?xml version="1.0" encoding="UTF-8" standalone="no"?>
<!DOCTYPE svg PUBLIC "-//W3C//DTD SVG 1.1//EN" "http://www.w3.org/Graphics/SVG/1.1/DTD/svg11.dtd">
<svg width="100%" height="100%" viewBox="0 0 161 122" version="1.1" xmlns="http://www.w3.org/2000/svg" xmlns:xlink="http://www.w3.org/1999/xlink" xml:space="preserve" xmlns:serif="http://www.serif.com/" style="fill-rule:evenodd;clip-rule:evenodd;stroke-linejoin:round;stroke-miterlimit:2;">
    <g id="ArtBoard1" transform="matrix(0.790055,0,0,0.726813,-31.1045,-105.199)">
        <rect x="39.37" y="144.74" width="203.6" height="166.76" style="fill:none;"/>
        <g transform="matrix(1.26573,0,0,1.37587,-30.6392,-80.4698)">
            <g>
                <g id="tight-bounds">
                    <g>
                        <g transform="matrix(1,0,0,1,63.2866,175.304)">
                            <g>
                                <g>
                                    <g>
                                        <g>
                                            <g>
                                                <g>
                                                    <g>
                                                        <g>
                                                            <g id="icon-0">
                                                                <path d="M125.435,34.668C125.435,37.58 123.074,39.941 120.162,39.941C117.25,39.941 114.889,37.58 114.889,34.668C114.889,31.756 117.25,29.395 120.162,29.395C123.074,29.395 125.435,31.756 125.435,34.668Z" style="fill:rgb(166,42,108);fill-rule:nonzero;"/>
                                                                <path d="M104.74,34.668C104.74,37.58 102.379,39.941 99.467,39.941C96.555,39.941 94.194,37.58 94.194,34.668C94.194,31.756 96.555,29.395 99.467,29.395C102.379,29.395 104.74,31.756 104.74,34.668Z" style="fill:rgb(166,42,108);fill-rule:nonzero;"/>
                                                                <path d="M115.304,44.234C115.304,47.147 112.943,49.507 110.031,49.507C107.119,49.507 104.758,47.147 104.758,44.234C104.758,41.322 107.119,38.962 110.031,38.962C112.943,38.962 115.304,41.322 115.304,44.234Z" style="fill:rgb(166,42,108);fill-rule:nonzero;"/>
                                                                <path d="M115.304,24.969C115.304,27.881 112.943,30.242 110.031,30.242C107.119,30.242 104.758,27.881 104.758,24.969C104.758,22.057 107.119,19.696 110.031,19.696C112.943,19.696 115.304,22.057 115.304,24.969Z" style="fill:rgb(166,42,108);fill-rule:nonzero;"/>
                                                                <path d="M142.609,44.988C141.686,33.915 140.857,29.828 140.274,25.46C139.276,18.116 136.526,11.77 132.045,7.193C127.582,2.599 121.368,-0.019 114.344,0C106.924,0 100.22,3.164 95.494,8.154L48.34,8.154C43.614,3.146 36.91,0 29.49,0C22.466,-0.019 16.251,2.599 11.789,7.193C7.307,11.77 4.557,18.116 3.56,25.46C2.957,29.828 2.128,33.915 1.224,44.988C0.602,52.483 0,59.544 0,65.947C0,69.506 0.188,72.839 0.697,75.965C1.45,80.616 2.937,84.872 5.857,88.243C7.307,89.919 9.096,91.312 11.186,92.348C13.277,93.384 15.63,94.061 18.229,94.382C19.039,94.476 19.83,94.533 20.621,94.533C24.142,94.551 27.438,93.46 30.187,91.576C34.349,88.752 37.4,84.44 40.017,79.279C42.258,74.817 44.16,69.638 45.949,64.045L97.885,64.045C100.352,71.823 103.064,78.734 106.604,84.138C108.582,87.151 110.879,89.712 113.648,91.576C116.397,93.441 119.693,94.533 123.214,94.533C124.005,94.533 124.796,94.476 125.606,94.382C129.07,93.949 132.121,92.894 134.645,91.181C136.528,89.919 138.109,88.299 139.334,86.473C141.18,83.723 142.29,80.541 142.949,77.095C143.609,73.648 143.853,69.92 143.853,65.909C143.835,59.543 143.232,52.463 142.61,44.987L142.609,44.988ZM135.698,74.741C135.076,78.601 133.928,81.426 132.29,83.291C131.462,84.232 130.52,84.985 129.295,85.607C128.071,86.209 126.565,86.68 124.663,86.925C124.154,86.982 123.683,87.019 123.231,87.019C121.197,87.001 119.54,86.473 117.864,85.343C115.359,83.686 112.836,80.447 110.558,75.908C108.279,71.389 106.208,65.627 104.268,59.186L103.458,56.512L40.393,56.512L39.583,59.186C36.984,67.773 34.16,75.136 30.939,79.994C29.338,82.424 27.663,84.212 25.986,85.342C24.292,86.454 22.653,87 20.619,87.019C20.168,87.019 19.678,86.981 19.188,86.924C16.646,86.605 14.819,85.889 13.407,84.947C12.352,84.231 11.505,83.366 10.771,82.273C9.678,80.635 8.831,78.45 8.304,75.682C7.777,72.914 7.532,69.619 7.551,65.928C7.551,60.015 8.135,53.085 8.757,45.59C9.661,34.686 10.414,31.147 11.054,26.457C11.883,20.337 14.104,15.592 17.211,12.428C20.319,9.283 24.292,7.532 29.527,7.513C35.289,7.513 40.411,10.15 43.801,14.293L44.931,15.668L98.957,15.668L100.087,14.293C103.477,10.15 108.599,7.513 114.361,7.513C119.597,7.532 123.569,9.283 126.677,12.428C129.765,15.592 131.988,20.337 132.835,26.457C133.475,31.146 134.228,34.686 135.132,45.59C135.754,53.085 136.337,59.996 136.337,65.928C136.3,69.223 136.13,72.18 135.697,74.741L135.698,74.741Z" style="fill:rgb(166,42,108);fill-rule:nonzero;"/>
                                                                <path d="M21.656,23.482C19.434,26.099 18.096,29.47 18.096,33.161C18.096,37.097 19.622,40.656 22.108,43.33L31.806,33.632L21.655,23.482L21.656,23.482Z" style="fill:rgb(166,42,108);fill-rule:nonzero;"/>
                                                                <path d="M23.878,44.949C26.42,46.927 29.584,48.113 33.049,48.113C36.739,48.113 40.11,46.777 42.728,44.554L33.501,35.327L23.879,44.95L23.878,44.949Z" style="fill:rgb(166,42,108);fill-rule:nonzero;"/>
                                                                <path d="M43.218,22.202C40.544,19.716 36.985,18.191 33.049,18.191C29.359,18.191 25.988,19.527 23.37,21.749L33.501,31.9L43.218,22.202Z" style="fill:rgb(166,42,108);fill-rule:nonzero;"/>
                                                                <path d="M35.215,33.613L44.442,42.84C46.665,40.223 48.001,36.852 48.001,33.161C48.001,29.696 46.815,26.532 44.837,23.99L35.214,33.613L35.215,33.613Z" style="fill:rgb(166,42,108);fill-rule:nonzero;"/>
                                                            </g>
                                                        </g>
                                                    </g>
                                                </g>
                                            </g>
                                        </g>
                                    </g>
                                </g>
                            </g>
                        </g>
                    </g>
                </g>
            </g>
        </g>
    </g>
</svg>
