<svg xmlns="http://www.w3.org/2000/svg" version="1.1" xmlns:xlink="http://www.w3.org/1999/xlink" xmlns:svgjs="http://svgjs.dev/svgjs" width="1000" height="623" viewBox="0 0 1000 623"><g transform="matrix(1,0,0,1,-0.6060606060606233,0.2522267206477409)"><svg viewBox="0 0 396 247" data-background-color="#ffffff" preserveAspectRatio="xMidYMid meet" height="623" width="1000" xmlns="http://www.w3.org/2000/svg" xmlns:xlink="http://www.w3.org/1999/xlink"><g id="tight-bounds" transform="matrix(1,0,0,1,0.2400000000000091,-0.09999999999999432)"><svg viewBox="0 0 395.52 247.2" height="247.2" width="395.52"><g><svg></svg></g><g><svg viewBox="0 0 395.52 247.2" height="247.2" width="395.52"><g><path d="M55.039 247.2l26.403-45.732h3.007l-24.818 42.986h276.258l-24.818-42.986 3.007 0 26.403 45.732zM197.76 0l26.403 45.732-3.006 0-23.397-40.525-23.397 40.525-3.006 0z" fill="#a62a6c" fill-rule="nonzero" stroke="none" stroke-width="1" stroke-linecap="butt" stroke-linejoin="miter" stroke-miterlimit="10" stroke-dasharray="" stroke-dashoffset="0" font-family="none" font-weight="none" font-size="none" text-anchor="none" style="mix-blend-mode: normal" data-fill-palette-color="tertiary"></path></g><g transform="matrix(1,0,0,1,25.091142259396975,67.97999999999999)"><svg viewBox="0 0 345.33771548120603 111.24" height="111.24" width="345.33771548120603"><g><svg viewBox="0 0 405.7608908928223 130.70348091004846" height="111.24" width="345.33771548120603"><g><rect width="4.672339836667322" height="130.70348091004846" x="156.08471223076086" y="0" fill="#a62a6c" opacity="1" stroke-width="0" stroke="transparent" fill-opacity="1" class="rect-r$-0" data-fill-palette-color="primary" rx="1%" id="r$-0" data-palette-color="#a62a6c"></rect></g><g transform="matrix(1,0,0,1,172.98830818435835,0.325133037089671)"><svg viewBox="0 0 232.77258270846394 130.0532148358691" height="130.0532148358691" width="232.77258270846394"><g id="textblocktransform"><svg viewBox="0 0 232.77258270846394 130.0532148358691" height="130.0532148358691" width="232.77258270846394" id="textblock"><g><svg viewBox="0 0 232.77258270846394 110.5525368" height="110.5525368" width="232.77258270846394"><g transform="matrix(1,0,0,1,0,0)"><svg width="232.77258270846394" viewBox="2.749999999999999 -34.849999999999994 201.5 83.5" height="110.5525368" data-palette-color="#a62a6c"><svg></svg><svg></svg><g class="wordmark-text-0" data-fill-palette-color="primary" id="text-0"><path d="M20.55-4.2l12.5-29.9h4.2v34.1h-3.7v-27.25l-11.4 27.25h-3.5l-10.9-27.15v27.15h-3.75v-34.1h4.6zM53.05-4l7.45-19.4h3.2l-12.65 33.4h-3.4l3.7-9.55-9.6-23.85h3.55zM90.2 0.8c-2.867 0-5.34-0.71-7.42-2.13-2.087-1.413-3.687-3.447-4.8-6.1-1.12-2.647-1.68-5.82-1.68-9.52v0c0-3.733 0.56-6.943 1.68-9.63 1.113-2.68 2.713-4.73 4.8-6.15 2.08-1.413 4.553-2.12 7.42-2.12v0c2.633 0 4.91 0.59 6.83 1.77 1.913 1.187 3.553 2.93 4.92 5.23v0l-2.95 2.1c-2.1-3.8-5.033-5.7-8.8-5.7v0c-3.133 0-5.573 1.273-7.32 3.82-1.753 2.553-2.63 6.097-2.63 10.63v0c0 4.5 0.883 8.023 2.65 10.57 1.767 2.553 4.2 3.83 7.3 3.83v0c1.733 0 3.293-0.417 4.68-1.25 1.38-0.833 2.47-2.067 3.27-3.7 0.8-1.633 1.2-3.633 1.2-6v0h-8.05v-3.1h11.75v3.1c0 3.1-0.55 5.723-1.65 7.87-1.1 2.153-2.623 3.77-4.57 4.85-1.953 1.087-4.163 1.63-6.63 1.63zM126.65-23.4h3.4v23.4h-3.4v-3.45c-0.967 1.333-2.15 2.373-3.55 3.12-1.4 0.753-2.933 1.13-4.6 1.13v0c-2.233 0-4.233-0.533-6-1.6-1.767-1.067-3.15-2.55-4.15-4.45-1-1.9-1.5-4.067-1.5-6.5v0c0-2.4 0.493-4.543 1.48-6.43 0.98-1.88 2.347-3.353 4.1-4.42 1.747-1.067 3.737-1.6 5.97-1.6v0c1.7 0 3.26 0.373 4.68 1.12 1.413 0.753 2.603 1.813 3.57 3.18v0zM118.4-2.3c1.6 0 3.027-0.4 4.28-1.2 1.247-0.8 2.22-1.917 2.92-3.35 0.7-1.433 1.05-3.05 1.05-4.85v0c0-1.8-0.35-3.417-1.05-4.85-0.7-1.433-1.673-2.55-2.92-3.35-1.253-0.8-2.68-1.2-4.28-1.2v0c-1.567 0-2.967 0.4-4.2 1.2-1.233 0.8-2.2 1.91-2.9 3.33-0.7 1.413-1.05 3.02-1.05 4.82v0c0 1.833 0.35 3.467 1.05 4.9 0.7 1.433 1.667 2.55 2.9 3.35 1.233 0.8 2.633 1.2 4.2 1.2zM161.25-24.2c2.167 0 3.967 0.757 5.4 2.27 1.433 1.52 2.15 3.613 2.15 6.28v0 15.65h-3.4v-14.15c0-2.467-0.467-4.243-1.4-5.33-0.933-1.08-2.15-1.62-3.65-1.62v0c-1.833 0-3.257 0.707-4.27 2.12-1.02 1.42-1.613 3.347-1.78 5.78v0 13.2h-3.4v-14.15c0-2.467-0.467-4.243-1.4-5.33-0.933-1.08-2.15-1.62-3.65-1.62v0c-2.033 0-3.557 0.85-4.57 2.55-1.02 1.7-1.53 3.983-1.53 6.85v0 11.7h-3.4v-23.4h3.4v3.65c0.767-1.433 1.743-2.533 2.93-3.3 1.18-0.767 2.537-1.15 4.07-1.15v0c1.7 0 3.183 0.457 4.45 1.37 1.267 0.92 2.15 2.23 2.65 3.93v0c0.733-1.667 1.733-2.967 3-3.9 1.267-0.933 2.733-1.4 4.4-1.4zM184.95-24.2c2.1 0 4 0.517 5.7 1.55 1.7 1.033 3.033 2.44 4 4.22 0.967 1.787 1.45 3.78 1.45 5.98v0c0 0.633-0.017 1.117-0.05 1.45v0h-19.25c0.133 2.4 0.917 4.45 2.35 6.15 1.433 1.7 3.383 2.55 5.85 2.55v0c2 0 3.66-0.377 4.98-1.13 1.313-0.747 2.37-1.787 3.17-3.12v0l2.7 1.8c-1.1 1.733-2.55 3.09-4.35 4.07-1.8 0.987-3.933 1.48-6.4 1.48v0c-2.267 0-4.283-0.533-6.05-1.6-1.767-1.067-3.15-2.55-4.15-4.45-1-1.9-1.5-4.05-1.5-6.45v0c0-2.4 0.493-4.55 1.48-6.45 0.98-1.9 2.347-3.383 4.1-4.45 1.747-1.067 3.737-1.6 5.97-1.6zM177-13.8h15.7c-0.333-2.433-1.15-4.26-2.45-5.48-1.3-1.213-3.067-1.82-5.3-1.82v0c-2.167 0-3.94 0.69-5.32 2.07-1.387 1.387-2.263 3.13-2.63 5.23z" fill="#a62a6c" fill-rule="nonzero" stroke="none" stroke-width="1" stroke-linecap="butt" stroke-linejoin="miter" stroke-miterlimit="10" stroke-dasharray="" stroke-dashoffset="0" font-family="none" font-weight="none" font-size="none" text-anchor="none" style="mix-blend-mode: normal" data-fill-palette-color="primary" opacity="1"></path><path transform="translate(0,47.85)" d="M16.65 0.8c-2.867 0-5.343-0.71-7.43-2.13-2.08-1.413-3.68-3.447-4.8-6.1-1.113-2.647-1.67-5.82-1.67-9.52v0c0-3.733 0.543-6.943 1.63-9.63 1.08-2.68 2.63-4.73 4.65-6.15 2.013-1.413 4.403-2.12 7.17-2.12v0c2.833 0 5.26 0.623 7.28 1.87 2.013 1.253 3.587 3.013 4.72 5.28v0l-3 1.75c-1.067-1.967-2.317-3.377-3.75-4.23-1.433-0.847-3.183-1.27-5.25-1.27v0c-2.967 0-5.293 1.273-6.98 3.82-1.68 2.553-2.52 6.097-2.52 10.63v0c0 2.967 0.383 5.533 1.15 7.7 0.767 2.167 1.867 3.823 3.3 4.97 1.433 1.153 3.1 1.73 5 1.73v0c2.367 0 4.21-0.523 5.53-1.57 1.313-1.053 2.537-2.697 3.67-4.93v0l3.15 1.9c-1.2 2.6-2.79 4.583-4.77 5.95-1.987 1.367-4.347 2.05-7.08 2.05zM43.6 0.8c-2.233 0-4.233-0.533-6-1.6-1.767-1.067-3.15-2.56-4.15-4.48-1-1.913-1.5-4.07-1.5-6.47v0c0-2.4 0.49-4.543 1.47-6.43 0.987-1.88 2.353-3.353 4.1-4.42 1.753-1.067 3.747-1.6 5.98-1.6v0c2.233 0 4.233 0.533 6 1.6 1.767 1.067 3.15 2.55 4.15 4.45 1 1.9 1.5 4.05 1.5 6.45v0c0 2.4-0.493 4.55-1.48 6.45-0.98 1.9-2.343 3.383-4.09 4.45-1.753 1.067-3.747 1.6-5.98 1.6zM43.5-2.3c1.6 0 3.027-0.4 4.28-1.2 1.247-0.8 2.22-1.917 2.92-3.35 0.7-1.433 1.05-3.05 1.05-4.85v0c0-1.8-0.35-3.417-1.05-4.85-0.7-1.433-1.673-2.55-2.92-3.35-1.253-0.8-2.68-1.2-4.28-1.2v0c-1.567 0-2.967 0.4-4.2 1.2-1.233 0.8-2.2 1.91-2.9 3.33-0.7 1.413-1.05 3.02-1.05 4.82v0c0 1.833 0.35 3.467 1.05 4.9 0.7 1.433 1.667 2.55 2.9 3.35 1.233 0.8 2.633 1.2 4.2 1.2zM63.6 0h-3.4v-36.3h3.4zM73.75 0h-3.4v-36.3h3.4zM90.35-24.2c2.1 0 4 0.517 5.7 1.55 1.7 1.033 3.033 2.44 4 4.22 0.967 1.787 1.45 3.78 1.45 5.98v0c0 0.633-0.017 1.117-0.05 1.45v0h-19.25c0.133 2.4 0.917 4.45 2.35 6.15 1.433 1.7 3.383 2.55 5.85 2.55v0c2 0 3.66-0.377 4.98-1.13 1.313-0.747 2.37-1.787 3.17-3.12v0l2.7 1.8c-1.1 1.733-2.55 3.09-4.35 4.07-1.8 0.987-3.933 1.48-6.4 1.48v0c-2.267 0-4.283-0.533-6.05-1.6-1.767-1.067-3.15-2.55-4.15-4.45-1-1.9-1.5-4.05-1.5-6.45v0c0-2.4 0.493-4.55 1.48-6.45 0.98-1.9 2.347-3.383 4.1-4.45 1.747-1.067 3.737-1.6 5.97-1.6zM82.4-13.8h15.7c-0.333-2.433-1.15-4.26-2.45-5.48-1.3-1.213-3.067-1.82-5.3-1.82v0c-2.167 0-3.94 0.69-5.32 2.07-1.387 1.387-2.263 3.13-2.63 5.23zM116.65 0.8c-2.267 0-4.283-0.533-6.05-1.6-1.767-1.067-3.15-2.55-4.15-4.45-1-1.9-1.5-4.05-1.5-6.45v0c0-2.4 0.493-4.55 1.48-6.45 0.98-1.9 2.353-3.383 4.12-4.45 1.767-1.067 3.767-1.6 6-1.6v0c1.9 0 3.56 0.407 4.98 1.22 1.413 0.82 2.703 1.98 3.87 3.48v0l-2.5 1.95c-1.633-2.367-3.75-3.55-6.35-3.55v0c-1.567 0-2.973 0.4-4.22 1.2-1.253 0.8-2.23 1.917-2.93 3.35-0.7 1.433-1.05 3.05-1.05 4.85v0c0 1.8 0.35 3.417 1.05 4.85 0.7 1.433 1.677 2.55 2.93 3.35 1.247 0.8 2.653 1.2 4.22 1.2v0c1.6 0 2.917-0.277 3.95-0.83 1.033-0.547 1.967-1.353 2.8-2.42v0l2.65 1.85c-1.1 1.367-2.457 2.457-4.07 3.27-1.62 0.82-3.363 1.23-5.23 1.23zM135 0h-3.4v-20.3h-4v-3.1h4v-7.75h3.4v7.75h5.4v3.1h-5.4zM149.35 0h-3.4v-23.4h3.4zM147.65-27.95c-0.767 0-1.407-0.267-1.92-0.8-0.52-0.533-0.78-1.183-0.78-1.95v0c0-0.733 0.26-1.36 0.78-1.88 0.513-0.513 1.153-0.77 1.92-0.77v0c0.733 0 1.367 0.257 1.9 0.77 0.533 0.52 0.8 1.163 0.8 1.93v0c0 0.733-0.267 1.367-0.8 1.9-0.533 0.533-1.167 0.8-1.9 0.8zM167.7 0.8c-2.233 0-4.233-0.533-6-1.6-1.767-1.067-3.15-2.56-4.15-4.48-1-1.913-1.5-4.07-1.5-6.47v0c0-2.4 0.493-4.543 1.48-6.43 0.98-1.88 2.347-3.353 4.1-4.42 1.747-1.067 3.737-1.6 5.97-1.6v0c2.233 0 4.233 0.533 6 1.6 1.767 1.067 3.15 2.55 4.15 4.45 1 1.9 1.5 4.05 1.5 6.45v0c0 2.4-0.49 4.55-1.47 6.45-0.987 1.9-2.353 3.383-4.1 4.45-1.753 1.067-3.747 1.6-5.98 1.6zM167.6-2.3c1.6 0 3.027-0.4 4.28-1.2 1.247-0.8 2.22-1.917 2.92-3.35 0.7-1.433 1.05-3.05 1.05-4.85v0c0-1.8-0.35-3.417-1.05-4.85-0.7-1.433-1.673-2.55-2.92-3.35-1.253-0.8-2.68-1.2-4.28-1.2v0c-1.567 0-2.967 0.4-4.2 1.2-1.233 0.8-2.2 1.91-2.9 3.33-0.7 1.413-1.05 3.02-1.05 4.82v0c0 1.833 0.35 3.467 1.05 4.9 0.7 1.433 1.667 2.55 2.9 3.35 1.233 0.8 2.633 1.2 4.2 1.2zM195.2-24.2c1.633 0 3.143 0.333 4.53 1 1.38 0.667 2.48 1.65 3.3 2.95 0.813 1.3 1.22 2.833 1.22 4.6v0 15.65h-3.4v-14.15c0-4.633-2.067-6.95-6.2-6.95v0c-2.4 0-4.2 0.85-5.4 2.55-1.2 1.7-1.8 3.983-1.8 6.85v0 11.7h-3.4v-23.4h3.4v3.9c0.8-1.5 1.86-2.66 3.18-3.48 1.313-0.813 2.837-1.22 4.57-1.22z" fill="#a62a6c" fill-rule="nonzero" stroke="none" stroke-width="1" stroke-linecap="butt" stroke-linejoin="miter" stroke-miterlimit="10" stroke-dasharray="" stroke-dashoffset="0" font-family="none" font-weight="none" font-size="none" text-anchor="none" style="mix-blend-mode: normal" data-fill-palette-color="primary" opacity="1"></path></g></svg></g></svg></g><g transform="matrix(1,0,0,1,0,122.78379291693017)"><svg viewBox="0 0 132.68037214382443 7.269421918938951" height="7.269421918938951" width="132.68037214382443"><g transform="matrix(1,0,0,1,0,0)"><svg width="132.68037214382443" viewBox="0.4 -33.77 624.64 34.230000000000004" height="7.269421918938951" data-palette-color="#a62a6c"><path d="M25.35-29.83L14.81-29.83 14.81 0 10.95 0 10.95-29.83 0.4-29.83 0.4-33.27 25.35-33.27 25.35-29.83ZM39.25-29.88L34.22-29.88 34.22-17.16 39.53-17.16Q43.6-17.16 45.52-18.77 47.44-20.37 47.44-23.66 47.44-26.95 45.5-28.41 43.55-29.88 39.25-29.88L39.25-29.88ZM41.15-13.83L34.22-13.83 34.22 0 30.36 0 30.36-33.27 39.48-33.27Q45.57-33.27 48.51-30.93 51.44-28.59 51.44-23.86L51.44-23.86Q51.44-17.24 44.76-14.94L44.76-14.94 53.79 0 49.21 0 41.15-13.83ZM67.87-24.37L63.95-14.05 74.69-14.05 70.82-24.37Q70.04-26.49 69.28-29.17L69.28-29.17Q68.83-27.1 67.87-24.37L67.87-24.37ZM70.98-33.39L84.04 0 80.05 0 75.91-10.57 62.58-10.57 58.49 0 54.57 0 67.71-33.39 70.98-33.39ZM101.91-30.28L101.91-30.28Q96.43-30.28 93.26-26.62 90.08-22.95 90.08-16.52 90.08-10.09 93.14-6.53 96.2-2.98 101.86-2.98L101.86-2.98Q105.4-2.98 109.83-4.22L109.83-4.22 109.83-0.83Q106.36 0.46 101.28 0.46L101.28 0.46Q93.93 0.46 89.93-3.99L89.93-3.99Q85.94-8.49 85.94-16.68L85.94-16.68Q85.91-20.48 87.04-23.67 88.16-26.87 90.24-29.1 92.31-31.32 95.32-32.55 98.32-33.77 101.96-33.75L101.96-33.75Q107.25-33.75 111.11-31.83L111.11-31.83 109.47-28.51Q105.76-30.28 101.91-30.28ZM120.95-13.04L120.95 0 117.08 0 117.08-33.27 120.95-33.27 120.95-16.76 136.04-33.27 140.59-33.27 127.21-18.81 141.09 0 136.54 0 124.43-16.13 120.95-13.04ZM169.52-12.89L169.52 0 165.61 0 165.61-12.71 154.54-33.27 158.76-33.27 167.58-16.63 176.45-33.27 180.62-33.27 169.52-12.89ZM186.51-4.02Q182.52-8.54 182.52-16.7 182.52-24.85 186.52-29.31 190.53-33.77 197.8-33.77 205.06-33.77 209.1-29.23 213.13-24.7 213.13-16.7 213.13-8.7 209.08-4.12 205.04 0.46 197.77 0.46 190.5 0.46 186.51-4.02L186.51-4.02ZM206.23-26.87Q203.42-30.33 197.9-30.33 192.37-30.33 189.49-26.85 186.61-23.36 186.61-16.65 186.61-9.93 189.49-6.43 192.37-2.93 197.88-2.93 203.4-2.93 206.21-6.41 209.03-9.88 209.03-16.65 209.03-23.41 206.23-26.87ZM241.76-11.6L241.76-33.27 245.63-33.27 245.63-11.73Q245.63-6.04 242.19-2.79 238.76 0.46 232.77 0.46 226.77 0.46 223.46-2.81L223.46-2.81Q220.18-6.09 220.18-11.83L220.18-11.83 220.18-33.27 224.04-33.27 224.04-11.55Q224.04-7.36 226.33-5.14 228.62-2.93 232.92-2.93 237.21-2.93 239.49-5.18 241.76-7.43 241.76-11.6L241.76-11.6ZM263.35-29.88L258.32-29.88 258.32-17.16 263.63-17.16Q267.7-17.16 269.62-18.77 271.54-20.37 271.54-23.66 271.54-26.95 269.59-28.41 267.65-29.88 263.35-29.88L263.35-29.88ZM265.25-13.83L258.32-13.83 258.32 0 254.45 0 254.45-33.27 263.58-33.27Q269.67-33.27 272.6-30.93 275.53-28.59 275.53-23.86L275.53-23.86Q275.53-17.24 268.86-14.94L268.86-14.94 277.88 0 273.31 0 265.25-13.83ZM296.69-33.27L305.31-33.27Q317.77-33.27 317.77-23.56L317.77-23.56Q317.77-18.53 314.32-15.8 310.87-13.07 304.47-13.07L304.47-13.07 300.55-13.07 300.55 0 296.69 0 296.69-33.27ZM304.88-29.9L300.55-29.9 300.55-16.41 304.04-16.41Q309.15-16.41 311.47-18.05L311.47-18.05Q313.77-19.72 313.77-23.22 313.77-26.72 311.6-28.31 309.43-29.9 304.88-29.9L304.88-29.9ZM328.61-33.27L328.61 0 324.74 0 324.74-33.27 328.61-33.27ZM356.26-3.51L356.26 0 337.73 0 337.73-33.27 341.6-33.27 341.6-3.51 356.26-3.51ZM365.79-3.46L380.45-3.46 380.45 0 361.92 0 361.92-33.27 380.45-33.27 380.45-29.83 365.79-29.83 365.79-19.11 379.57-19.11 379.57-15.7 365.79-15.7 365.79-3.46ZM403.52-4.02Q399.53-8.54 399.53-16.7 399.53-24.85 403.54-29.31 407.54-33.77 414.81-33.77 422.08-33.77 426.11-29.23 430.14-24.7 430.14-16.7 430.14-8.7 426.1-4.12 422.05 0.46 414.79 0.46 407.52 0.46 403.52-4.02L403.52-4.02ZM423.24-26.87Q420.44-30.33 414.91-30.33 409.39-30.33 406.51-26.85 403.63-23.36 403.63-16.65 403.63-9.93 406.51-6.43 409.39-2.93 414.9-2.93 420.41-2.93 423.23-6.41 426.05-9.88 426.05-16.65 426.05-23.41 423.24-26.87ZM455.19-14.21L441.41-14.21 441.41 0 437.55 0 437.55-33.27 456.07-33.27 456.07-29.83 441.41-29.83 441.41-17.64 455.19-17.64 455.19-14.21ZM493.78-8.85L493.78-8.85Q493.78-4.45 490.61-2 487.44 0.46 481.74 0.46 476.04 0.46 472.85-1.06L472.85-1.06 472.85-4.8Q477.35-2.93 482.11-2.93L482.11-2.93Q485.92-2.93 487.91-4.37 489.89-5.81 489.89-8.49L489.89-8.49Q489.89-10.21 489.2-11.3 488.5-12.39 486.86-13.35 485.22-14.31 481.93-15.47L481.93-15.47Q477.3-17.11 475.29-19.39 473.28-21.66 473.28-25.43 473.28-29.2 476.17-31.47L476.17-31.47Q479.1-33.75 483.94-33.75 488.78-33.75 492.95-31.93L492.95-31.93 491.74-28.54Q487.62-30.28 483.75-30.28L483.75-30.28Q480.67-30.28 478.93-28.96 477.2-27.63 477.2-25.3L477.2-25.3Q477.2-23.53 477.82-22.47 478.44-21.41 479.98-20.42L479.98-20.42Q481.58-19.46 484.63-18.4L484.63-18.4Q489.89-16.53 491.81-14.38L491.81-14.38Q493.78-12.26 493.78-8.85ZM521.99-33.27L525.86-33.27 525.86 0 521.99 0 521.99-15.65 504.47-15.65 504.47 0 500.61 0 500.61-33.27 504.47-33.27 504.47-19.11 521.99-19.11 521.99-33.27ZM543.7-24.37L539.79-14.05 550.53-14.05 546.66-24.37Q545.88-26.49 545.12-29.17L545.12-29.17Q544.66-27.1 543.7-24.37L543.7-24.37ZM546.81-33.39L559.88 0 555.89 0 551.74-10.57 538.42-10.57 534.33 0 530.41 0 543.55-33.39 546.81-33.39ZM568.02-21.16L568.02-21.16 568.02 0 564.45 0 564.45-33.27 570.27-33.27 580.81-5.81 580.99-5.81 591.6-33.27 597.39-33.27 597.39 0 593.52 0 593.52-21.44Q593.52-25.28 593.85-29.45L593.85-29.45 593.65-29.45 582.28 0 579.17 0 567.89-29.47 567.72-29.47Q568.02-25.99 568.02-21.16ZM610.38-3.46L625.04-3.46 625.04 0 606.51 0 606.51-33.27 625.04-33.27 625.04-29.83 610.38-29.83 610.38-19.11 624.16-19.11 624.16-15.7 610.38-15.7 610.38-3.46Z" opacity="1" transform="matrix(1,0,0,1,0,0)" fill="#a62a6c" class="slogan-text-1" data-fill-palette-color="secondary" id="text-1"></path></svg></g></svg></g></svg></g></svg></g><g transform="matrix(1,0,0,1,0,18.085259858303274)"><svg viewBox="0 0 143.8534561138307 94.5329611934419" height="94.5329611934419" width="143.8534561138307"><g><svg xmlns="http://www.w3.org/2000/svg" xmlns:xlink="http://www.w3.org/1999/xlink" version="1.1" viewBox="30.232999999999993 63.74485853455743 195.561 128.5124523481871" x="0" y="0" height="94.5329611934419" width="143.8534561138307" class="icon-icon-0" data-fill-palette-color="accent" id="icon-0"><path d="M200.755 110.874c0 3.959-3.209 7.168-7.168 7.168s-7.168-3.209-7.168-7.168c0-3.959 3.209-7.168 7.168-7.168s7.168 3.209 7.168 7.168z" fill="#a62a6c" data-fill-palette-color="accent"></path><path d="M172.621 110.874c0 3.959-3.209 7.168-7.168 7.168s-7.168-3.209-7.168-7.168c0-3.959 3.209-7.168 7.168-7.168s7.168 3.209 7.168 7.168z" fill="#a62a6c" data-fill-palette-color="accent"></path><path d="M186.982 123.879c0 3.959-3.209 7.168-7.168 7.168s-7.168-3.209-7.168-7.168c0-3.959 3.209-7.168 7.168-7.168s7.168 3.209 7.168 7.168z" fill="#a62a6c" data-fill-palette-color="accent"></path><path d="M186.982 97.689c0 3.959-3.209 7.168-7.168 7.168s-7.168-3.209-7.168-7.168c0-3.959 3.209-7.168 7.168-7.168s7.168 3.209 7.168 7.168z" fill="#a62a6c" data-fill-palette-color="accent"></path><path d="M224.102 124.903c-1.255-15.053-2.381-20.608-3.174-26.547-1.357-9.984-5.095-18.611-11.187-24.832-6.067-6.246-14.515-9.805-24.064-9.779-10.087 0-19.2 4.301-25.625 11.085h-64.103c-6.425-6.809-15.539-11.085-25.626-11.085-9.549-0.026-17.997 3.533-24.064 9.779-6.093 6.221-9.831 14.848-11.187 24.832-0.819 5.939-1.946 11.495-3.175 26.547-0.845 10.189-1.664 19.789-1.664 28.493 0 4.839 0.256 9.369 0.947 13.619 1.024 6.323 3.046 12.109 7.015 16.691 1.971 2.279 4.403 4.173 7.245 5.581s6.041 2.329 9.575 2.765c1.101 0.128 2.176 0.205 3.251 0.205 4.787 0.025 9.267-1.459 13.005-4.019 5.657-3.84 9.805-9.702 13.363-16.717 3.046-6.067 5.632-13.107 8.064-20.71h70.605c3.353 10.573 7.04 19.968 11.853 27.315 2.688 4.096 5.811 7.577 9.575 10.112 3.738 2.535 8.218 4.019 13.005 4.019 1.075 0 2.15-0.077 3.251-0.205 4.71-0.589 8.857-2.023 12.288-4.352 2.56-1.715 4.71-3.917 6.375-6.4 2.509-3.738 4.019-8.064 4.915-12.749s1.229-9.754 1.229-15.207c-0.025-8.653-0.845-18.279-1.69-28.442zM214.707 165.351c-0.845 5.248-2.406 9.088-4.633 11.623-1.126 1.28-2.406 2.304-4.071 3.149-1.664 0.819-3.712 1.459-6.298 1.792-0.691 0.077-1.331 0.128-1.946 0.128-2.765-0.025-5.018-0.743-7.296-2.279-3.405-2.253-6.835-6.656-9.933-12.826-3.097-6.144-5.913-13.977-8.55-22.733l-1.101-3.635h-85.734l-1.101 3.635c-3.533 11.673-7.373 21.683-11.751 28.288-2.176 3.303-4.454 5.734-6.733 7.27-2.304 1.511-4.531 2.253-7.296 2.279-0.614 0-1.28-0.051-1.946-0.128-3.456-0.435-5.939-1.408-7.859-2.688-1.434-0.973-2.586-2.15-3.584-3.635-1.485-2.227-2.637-5.197-3.353-8.96s-1.05-8.243-1.024-13.261c0-8.038 0.794-17.459 1.639-27.648 1.229-14.823 2.253-19.635 3.123-26.01 1.127-8.32 4.147-14.771 8.371-19.072 4.224-4.275 9.626-6.656 16.742-6.681 7.834 0 14.797 3.584 19.405 9.216l1.536 1.869h73.446l1.536-1.869c4.608-5.632 11.571-9.216 19.405-9.216 7.117 0.025 12.518 2.406 16.743 6.681 4.198 4.301 7.219 10.752 8.371 19.072 0.87 6.374 1.894 11.187 3.123 26.01 0.845 10.189 1.638 19.584 1.638 27.648-0.051 4.48-0.281 8.499-0.87 11.981z" fill="#a62a6c" data-fill-palette-color="accent"></path><path d="M59.673 95.667c-3.021 3.558-4.839 8.141-4.839 13.159 0 5.35 2.074 10.189 5.453 13.824l13.184-13.184-13.799-13.799z" fill="#a62a6c" data-fill-palette-color="accent"></path><path d="M62.694 124.851c3.456 2.688 7.757 4.301 12.467 4.301 5.017 0 9.6-1.817 13.159-4.838l-12.544-12.544-13.081 13.082z" fill="#a62a6c" data-fill-palette-color="accent"></path><path d="M88.986 93.927c-3.635-3.379-8.474-5.453-13.824-5.453-5.017 0-9.6 1.817-13.159 4.838l13.773 13.799 13.21-13.184z" fill="#a62a6c" data-fill-palette-color="accent"></path><path d="M78.106 109.44l12.544 12.544c3.021-3.558 4.838-8.141 4.838-13.159 0-4.71-1.613-9.011-4.301-12.467l-13.082 13.082z" fill="#a62a6c" data-fill-palette-color="accent"></path></svg></g></svg></g></svg></g></svg></g></svg></g><defs></defs></svg><rect width="395.52" height="247.2" fill="none" stroke="none" visibility="hidden"></rect></g></svg></g></svg>